# xmcd
#
# Track frame offsets:
#	150
#	21214
#	41645
#	64083
#	79823
#	90522
#	101167
#	116220
#	133262
#	151476
#	167484
#	179238
#	197147
#	210277
#	227944
#	249536
#	276122
#	289400
#	299812
#	319571
#
# Disc length: 4480 seconds
# Revision: 0
# Processed by: cddbd v1.5.2PL0 Copyright (c) Steve Scherf et al.
# Submitted via: dBpowerAMP V12.0
#
DISCID=36117e14
DTITLE=Bob Dylan - Under The Covers
DYEAR=2017
DGENRE=Folk-Rock
TTITLE0=Pancho And Lefty
TTITLE1=Hard Times
TTITLE2=Across The Boarderline
TTITLE3=Answer Me, My Love
TTITLE4=Soon
TTITLE5=Thank God
TTITLE6=That Lucky Old Sun
TTITLE7=I Forgot More Than You'll Ever Know
TTITLE8=Lonesome Town
TTITLE9=Uranium Rock
TTITLE10=Don't Start Me Talkin'
TTITLE11=Deportee (Plane Wreck At Los Gatos)
TTITLE12=Railroad Boy
TTITLE13=Omie Wise
TTITLE14=Po Lazarus
TTITLE15=A Long Time A Growin'
TTITLE16=Baby, Let Me Follow You Down
TTITLE17=Cocaine
TTITLE18=Two Trains Running (Still A Fool)
TTITLE19=Hard Travelin'
EXTD=
EXTT0=
EXTT1=
EXTT2=
EXTT3=
EXTT4=
EXTT5=
EXTT6=
EXTT7=
EXTT8=
EXTT9=
EXTT10=
EXTT11=
EXTT12=
EXTT13=
EXTT14=
EXTT15=
EXTT16=
EXTT17=
EXTT18=
EXTT19=
PLAYORDER=
